<svg width="21" height="21" viewBox="0 0 21 21" fill="none" xmlns="http://www.w3.org/2000/svg">
<path d="M11.6597 20.1597L10.2597 18.7597L13.8097 15.2097L5.3097 6.7097L1.7597 10.2597L0.359695 8.8597L1.7597 7.4097L0.359695 6.0097L2.4597 3.9097L1.0597 2.4597L2.4597 1.0597L3.9097 2.4597L6.0097 0.359703L7.4097 1.7597L8.8597 0.359703L10.2597 1.7597L6.7097 5.3097L15.2097 13.8097L18.7597 10.2597L20.1597 11.6597L18.7597 13.1097L20.1597 14.5097L18.0597 16.6097L19.4597 18.0597L18.0597 19.4597L16.6097 18.0597L14.5097 20.1597L13.1097 18.7597L11.6597 20.1597Z" fill="white" stroke="black" stroke-linejoin="bevel"/>
</svg>
